<svg id="visual" viewBox="0 0 1920 1080" width="1920" height="1080" xmlns="http://www.w3.org/2000/svg" xmlns:xlink="http://www.w3.org/1999/xlink" version="1.1"><rect x="0" y="0" width="1920" height="1080" fill="#313031"></rect><path d="M0 690L45.7 706.3C91.3 722.7 182.7 755.3 274.2 751.5C365.7 747.7 457.3 707.3 548.8 704.5C640.3 701.7 731.7 736.3 823 734.2C914.3 732 1005.7 693 1097 677.8C1188.3 662.7 1279.7 671.3 1371.2 675C1462.7 678.7 1554.3 677.3 1645.8 691.3C1737.3 705.3 1828.7 734.7 1874.3 749.3L1920 764L1920 1081L1874.3 1081C1828.7 1081 1737.3 1081 1645.8 1081C1554.3 1081 1462.7 1081 1371.2 1081C1279.7 1081 1188.3 1081 1097 1081C1005.7 1081 914.3 1081 823 1081C731.7 1081 640.3 1081 548.8 1081C457.3 1081 365.7 1081 274.2 1081C182.7 1081 91.3 1081 45.7 1081L0 1081Z" fill="#fe9069"></path><path d="M0 757L45.7 775C91.3 793 182.7 829 274.2 846.2C365.7 863.3 457.3 861.7 548.8 845.8C640.3 830 731.7 800 823 775.3C914.3 750.7 1005.7 731.3 1097 740.3C1188.3 749.3 1279.7 786.7 1371.2 811.2C1462.7 835.7 1554.3 847.3 1645.8 840.7C1737.3 834 1828.7 809 1874.3 796.5L1920 784L1920 1081L1874.3 1081C1828.7 1081 1737.3 1081 1645.8 1081C1554.3 1081 1462.7 1081 1371.2 1081C1279.7 1081 1188.3 1081 1097 1081C1005.7 1081 914.3 1081 823 1081C731.7 1081 640.3 1081 548.8 1081C457.3 1081 365.7 1081 274.2 1081C182.7 1081 91.3 1081 45.7 1081L0 1081Z" fill="#f8764a"></path><path d="M0 839L45.7 842.7C91.3 846.3 182.7 853.7 274.2 847.3C365.7 841 457.3 821 548.8 821.7C640.3 822.3 731.7 843.7 823 852.5C914.3 861.3 1005.7 857.7 1097 846.2C1188.3 834.7 1279.7 815.3 1371.2 811.2C1462.7 807 1554.3 818 1645.8 822C1737.3 826 1828.7 823 1874.3 821.5L1920 820L1920 1081L1874.3 1081C1828.7 1081 1737.3 1081 1645.8 1081C1554.3 1081 1462.7 1081 1371.2 1081C1279.7 1081 1188.3 1081 1097 1081C1005.7 1081 914.3 1081 823 1081C731.7 1081 640.3 1081 548.8 1081C457.3 1081 365.7 1081 274.2 1081C182.7 1081 91.3 1081 45.7 1081L0 1081Z" fill="#f05b29"></path><path d="M0 965L45.7 959.8C91.3 954.7 182.7 944.3 274.2 928.5C365.7 912.7 457.3 891.3 548.8 884C640.3 876.7 731.7 883.3 823 884.3C914.3 885.3 1005.7 880.7 1097 879C1188.3 877.3 1279.7 878.7 1371.2 893.2C1462.7 907.7 1554.3 935.3 1645.8 936C1737.3 936.7 1828.7 910.3 1874.3 897.2L1920 884L1920 1081L1874.3 1081C1828.7 1081 1737.3 1081 1645.8 1081C1554.3 1081 1462.7 1081 1371.2 1081C1279.7 1081 1188.3 1081 1097 1081C1005.7 1081 914.3 1081 823 1081C731.7 1081 640.3 1081 548.8 1081C457.3 1081 365.7 1081 274.2 1081C182.7 1081 91.3 1081 45.7 1081L0 1081Z" fill="#d14e24"></path><path d="M0 972L45.7 969.7C91.3 967.3 182.7 962.7 274.2 962.2C365.7 961.7 457.3 965.3 548.8 966.3C640.3 967.3 731.7 965.7 823 973.8C914.3 982 1005.7 1000 1097 998C1188.3 996 1279.7 974 1371.2 974.7C1462.7 975.3 1554.3 998.7 1645.8 1001.7C1737.3 1004.7 1828.7 987.3 1874.3 978.7L1920 970L1920 1081L1874.3 1081C1828.7 1081 1737.3 1081 1645.8 1081C1554.3 1081 1462.7 1081 1371.2 1081C1279.7 1081 1188.3 1081 1097 1081C1005.7 1081 914.3 1081 823 1081C731.7 1081 640.3 1081 548.8 1081C457.3 1081 365.7 1081 274.2 1081C182.7 1081 91.3 1081 45.7 1081L0 1081Z" fill="#b2411f"></path></svg>