<svg id="visual" viewBox="0 0 960 300" width="960" height="300" xmlns="http://www.w3.org/2000/svg" xmlns:xlink="http://www.w3.org/1999/xlink" version="1.1"><path d="M0 56L20 63.3C40 70.7 80 85.3 120 90.2C160 95 200 90 240 89.2C280 88.3 320 91.7 360 86C400 80.3 440 65.7 480 62.5C520 59.3 560 67.7 600 66.5C640 65.3 680 54.7 720 65.3C760 76 800 108 840 108.5C880 109 920 78 940 62.5L960 47L960 301L940 301C920 301 880 301 840 301C800 301 760 301 720 301C680 301 640 301 600 301C560 301 520 301 480 301C440 301 400 301 360 301C320 301 280 301 240 301C200 301 160 301 120 301C80 301 40 301 20 301L0 301Z" fill="#fe9069"></path><path d="M0 135L20 138.3C40 141.7 80 148.3 120 155.2C160 162 200 169 240 162.5C280 156 320 136 360 129.8C400 123.7 440 131.3 480 134.2C520 137 560 135 600 138.7C640 142.3 680 151.7 720 151C760 150.3 800 139.7 840 135.3C880 131 920 133 940 134L960 135L960 301L940 301C920 301 880 301 840 301C800 301 760 301 720 301C680 301 640 301 600 301C560 301 520 301 480 301C440 301 400 301 360 301C320 301 280 301 240 301C200 301 160 301 120 301C80 301 40 301 20 301L0 301Z" fill="#f8764a"></path><path d="M0 193L20 190.3C40 187.7 80 182.3 120 183.7C160 185 200 193 240 196.8C280 200.7 320 200.3 360 193.8C400 187.3 440 174.7 480 163.8C520 153 560 144 600 151.7C640 159.3 680 183.7 720 184.2C760 184.7 800 161.3 840 148.3C880 135.3 920 132.7 940 131.3L960 130L960 301L940 301C920 301 880 301 840 301C800 301 760 301 720 301C680 301 640 301 600 301C560 301 520 301 480 301C440 301 400 301 360 301C320 301 280 301 240 301C200 301 160 301 120 301C80 301 40 301 20 301L0 301Z" fill="#f05b29"></path><path d="M0 181L20 180.2C40 179.3 80 177.7 120 186.7C160 195.7 200 215.3 240 217C280 218.7 320 202.3 360 198.7C400 195 440 204 480 203.7C520 203.3 560 193.7 600 188.8C640 184 680 184 720 187.7C760 191.3 800 198.7 840 202.2C880 205.7 920 205.3 940 205.2L960 205L960 301L940 301C920 301 880 301 840 301C800 301 760 301 720 301C680 301 640 301 600 301C560 301 520 301 480 301C440 301 400 301 360 301C320 301 280 301 240 301C200 301 160 301 120 301C80 301 40 301 20 301L0 301Z" fill="#d14e24"></path><path d="M0 253L20 247.8C40 242.7 80 232.3 120 236C160 239.7 200 257.3 240 263.8C280 270.3 320 265.7 360 258.5C400 251.3 440 241.7 480 243.3C520 245 560 258 600 263.7C640 269.3 680 267.7 720 263.5C760 259.3 800 252.7 840 253.8C880 255 920 264 940 268.5L960 273L960 301L940 301C920 301 880 301 840 301C800 301 760 301 720 301C680 301 640 301 600 301C560 301 520 301 480 301C440 301 400 301 360 301C320 301 280 301 240 301C200 301 160 301 120 301C80 301 40 301 20 301L0 301Z" fill="#b2411f"></path></svg>