<?xml version="1.0" ?>

<!-- Uploaded to: SVG Repo, www.svgrepo.com, Generator: SVG Repo Mixer Tools -->
<svg width="800px" height="800px" viewBox="0 0 32 32" id="svg5" version="1.1" xmlns="http://www.w3.org/2000/svg" xmlns:svg="http://www.w3.org/2000/svg">

<defs id="defs2"/>

<g id="layer1" transform="translate(-108,-100)">

<path d="m 111,106 a 1.0001,1.0001 0 0 0 -1,1 v 3 a 1,1 0 0 0 1,1 1,1 0 0 0 1,-1 v -2 h 2 a 1,1 0 0 0 1,-1 1,1 0 0 0 -1,-1 z" id="path11698" style="color:#f4f4f4;fill:#f4f4f4;fill-rule:evenodd;stroke-linecap:round;stroke-linejoin:round;stroke-miterlimit:4.1;-inkscape-stroke:none"/>

<path d="m 134,106 a 1,1 0 0 0 -1,1 1,1 0 0 0 1,1 h 2 v 2 a 1,1 0 0 0 1,1 1,1 0 0 0 1,-1 v -3 a 1.0001,1.0001 0 0 0 -1,-1 z" id="path11700" style="color:#f4f4f4;fill:#f4f4f4;fill-rule:evenodd;stroke-linecap:round;stroke-linejoin:round;stroke-miterlimit:4.1;-inkscape-stroke:none"/>

<path d="m 137,121 a 1,1 0 0 0 -1,1 v 2 h -2 a 1,1 0 0 0 -1,1 1,1 0 0 0 1,1 h 3 a 1.0001,1.0001 0 0 0 1,-1 v -3 a 1,1 0 0 0 -1,-1 z" id="path11702" style="color:#f4f4f4;fill:#f4f4f4;fill-rule:evenodd;stroke-linecap:round;stroke-linejoin:round;stroke-miterlimit:4.1;-inkscape-stroke:none"/>

<path d="m 111,121 a 1,1 0 0 0 -1,1 v 3 a 1.0001,1.0001 0 0 0 1,1 h 3 a 1,1 0 0 0 1,-1 1,1 0 0 0 -1,-1 h -2 v -2 a 1,1 0 0 0 -1,-1 z" id="path11704" style="color:#f4f4f4;fill:#f4f4f4;fill-rule:evenodd;stroke-linecap:round;stroke-linejoin:round;stroke-miterlimit:4.1;-inkscape-stroke:none"/>

<path d="m 115,110 a 1,1 0 0 0 -1,1 v 10 a 1,1 0 0 0 1,1 1,1 0 0 0 1,-1 v -10 a 1,1 0 0 0 -1,-1 z" id="path11706" style="color:#f4f4f4;fill:#f4f4f4;fill-rule:evenodd;stroke-linecap:round;stroke-linejoin:round;stroke-miterlimit:4.1;-inkscape-stroke:none"/>

<path d="m 118,110 a 1,1 0 0 0 -1,1 v 10 a 1,1 0 0 0 1,1 1,1 0 0 0 1,-1 v -10 a 1,1 0 0 0 -1,-1 z" id="path11708" style="color:#f4f4f4;fill:#f4f4f4;fill-rule:evenodd;stroke-linecap:round;stroke-linejoin:round;stroke-miterlimit:4.1;-inkscape-stroke:none"/>

<path d="m 121,110 a 1,1 0 0 0 -1,1 v 10 a 1,1 0 0 0 1,1 1,1 0 0 0 1,-1 v -10 a 1,1 0 0 0 -1,-1 z" id="path11710" style="color:#f4f4f4;fill:#f4f4f4;fill-rule:evenodd;stroke-linecap:round;stroke-linejoin:round;stroke-miterlimit:4.1;-inkscape-stroke:none"/>

<path d="m 124,110 a 1,1 0 0 0 -1,1 v 10 a 1,1 0 0 0 1,1 1,1 0 0 0 1,-1 v -10 a 1,1 0 0 0 -1,-1 z" id="path11712" style="color:#f4f4f4;fill:#f4f4f4;fill-rule:evenodd;stroke-linecap:round;stroke-linejoin:round;stroke-miterlimit:4.1;-inkscape-stroke:none"/>

<path d="m 127,110 a 1,1 0 0 0 -1,1 v 10 a 1,1 0 0 0 1,1 1,1 0 0 0 1,-1 v -10 a 1,1 0 0 0 -1,-1 z" id="path11714" style="color:#f4f4f4;fill:#f4f4f4;fill-rule:evenodd;stroke-linecap:round;stroke-linejoin:round;stroke-miterlimit:4.1;-inkscape-stroke:none"/>

<path d="m 130,110 a 1,1 0 0 0 -1,1 v 10 a 1,1 0 0 0 1,1 1,1 0 0 0 1,-1 v -10 a 1,1 0 0 0 -1,-1 z" id="path11716" style="color:#f4f4f4;fill:#f4f4f4;fill-rule:evenodd;stroke-linecap:round;stroke-linejoin:round;stroke-miterlimit:4.1;-inkscape-stroke:none"/>

<path d="m 133,110 a 1,1 0 0 0 -1,1 v 5.20703 1.31445 V 121 a 1,1 0 0 0 1,1 1,1 0 0 0 1,-1 V 117.52148 116.20703 111 a 1,1 0 0 0 -1,-1 z" id="path11720" style="color:#f4f4f4;fill:#f4f4f4;fill-rule:evenodd;stroke-linecap:round;stroke-linejoin:round;stroke-miterlimit:4.1;-inkscape-stroke:none"/>

</g>

</svg>