<svg xmlns="http://www.w3.org/2000/svg" version="1.1" xlink="http://www.w3.org/1999/xlink" xmlns:svgjs="http://svgjs.com/svgjs" width="100%" height="100%" viewBox="3.119999885559082 -37.22999954223633 348.760009765625 37.8900032043457"><g fill="#1b7ed0"><path d="M9.85 -1.15C11.91 0.06 14.17 0.66 16.62 0.66C19.04 0.66 21.29 0.06 23.35 -1.15C25.41 -2.36 27.05 -4 28.26 -6.06C29.47 -8.12 30.07 -10.38 30.07 -12.84L30.07 -18.77C30.07 -19.38 29.86 -19.9 29.43 -20.33C29.01 -20.76 28.49 -20.97 27.87 -20.97L17.08 -20.97C16.78 -20.97 16.52 -20.87 16.32 -20.66C16.11 -20.46 16.01 -20.2 16.01 -19.9L16.01 -16.21C16.01 -15.91 16.11 -15.65 16.32 -15.45C16.52 -15.24 16.78 -15.14 17.08 -15.14L23.94 -15.14L23.94 -12.63C23.94 -11.3 23.61 -10.08 22.96 -8.95C22.32 -7.83 21.43 -6.94 20.3 -6.29C19.18 -5.64 17.97 -5.32 16.67 -5.32C15.38 -5.32 14.17 -5.66 13.04 -6.34C11.92 -7.02 11.02 -7.94 10.36 -9.1C9.69 -10.26 9.36 -11.51 9.36 -12.84L9.36 -23.73C9.36 -25.06 9.69 -26.31 10.36 -27.47C11.02 -28.62 11.92 -29.55 13.04 -30.23C14.17 -30.91 15.38 -31.25 16.67 -31.25C19.33 -31.25 21.52 -30.35 23.22 -28.54C23.49 -28.23 23.8 -28.08 24.14 -28.08C24.41 -28.08 24.69 -28.22 24.96 -28.49L27.21 -30.84C27.48 -31.18 27.62 -31.52 27.62 -31.86C27.62 -32.2 27.52 -32.49 27.31 -32.73C26.02 -34.2 24.45 -35.32 22.61 -36.08C20.77 -36.85 18.77 -37.23 16.62 -37.23C14.17 -37.23 11.91 -36.63 9.85 -35.42C7.78 -34.21 6.15 -32.57 4.94 -30.51C3.73 -28.45 3.12 -26.19 3.12 -23.73L3.12 -12.84C3.12 -10.38 3.73 -8.12 4.94 -6.06C6.15 -4 7.78 -2.36 9.85 -1.15Z M42.58 -0.64C43.01 -0.21 43.53 0 44.14 0L61.58 0C61.89 0 62.14 -0.1 62.35 -0.31C62.55 -0.51 62.65 -0.77 62.65 -1.07L62.65 -4.91C62.65 -5.22 62.55 -5.47 62.35 -5.68C62.14 -5.88 61.89 -5.98 61.58 -5.98L48.18 -5.98L48.18 -16.11L58.15 -16.11C58.46 -16.11 58.72 -16.21 58.92 -16.42C59.12 -16.62 59.23 -16.88 59.23 -17.19L59.23 -20.82C59.23 -21.12 59.12 -21.38 58.92 -21.58C58.72 -21.79 58.46 -21.89 58.15 -21.89L48.18 -21.89L48.18 -30.59L61.58 -30.59C61.89 -30.59 62.14 -30.69 62.35 -30.89C62.55 -31.1 62.65 -31.35 62.65 -31.66L62.65 -35.5C62.65 -35.8 62.55 -36.06 62.35 -36.26C62.14 -36.47 61.89 -36.57 61.58 -36.57L44.14 -36.57C43.53 -36.57 43.01 -36.36 42.58 -35.93C42.15 -35.5 41.94 -34.98 41.94 -34.37L41.94 -2.2C41.94 -1.59 42.15 -1.07 42.58 -0.64Z M78.28 -0.28C80.07 0.32 81.88 0.61 83.73 0.61C86.08 0.61 88.16 0.15 89.97 -0.77C91.77 -1.69 93.18 -2.97 94.19 -4.63C95.19 -6.28 95.69 -8.17 95.69 -10.28C95.69 -12.46 95.1 -14.35 93.9 -15.96C92.71 -17.56 91.1 -18.78 89.07 -19.61C87.04 -20.45 85.87 -20.92 85.57 -21.02C83.42 -21.91 81.86 -22.79 80.89 -23.66C79.92 -24.52 79.43 -25.62 79.43 -26.95C79.43 -28.25 79.87 -29.32 80.76 -30.15C81.65 -30.99 82.86 -31.4 84.39 -31.4C85.35 -31.4 86.43 -31.22 87.64 -30.84C88.85 -30.47 90.12 -29.85 91.45 -29C91.69 -28.86 91.94 -28.8 92.22 -28.8C92.66 -28.8 92.98 -29 93.19 -29.41L94.88 -32.63C94.98 -32.84 95 -33.07 94.93 -33.32C94.86 -33.58 94.74 -33.76 94.57 -33.86C93.14 -34.92 91.53 -35.74 89.74 -36.34C87.95 -36.94 86.15 -37.23 84.34 -37.23C82.16 -37.23 80.23 -36.79 78.56 -35.9C76.89 -35.02 75.59 -33.77 74.65 -32.17C73.71 -30.57 73.24 -28.73 73.24 -26.65C73.24 -23.68 74.03 -21.43 75.62 -19.9C77.2 -18.36 79.16 -17.1 81.48 -16.11L82.96 -15.5C84.6 -14.85 85.84 -14.3 86.69 -13.86C87.54 -13.42 88.23 -12.88 88.74 -12.25C89.25 -11.62 89.51 -10.84 89.51 -9.92C89.51 -8.52 88.99 -7.39 87.95 -6.52C86.91 -5.65 85.48 -5.22 83.67 -5.22C81.46 -5.22 79.07 -6.02 76.51 -7.62C76.28 -7.76 76.02 -7.83 75.75 -7.83C75.3 -7.83 74.98 -7.62 74.78 -7.21L72.99 -3.99C72.88 -3.78 72.87 -3.55 72.93 -3.3C73 -3.04 73.12 -2.86 73.29 -2.76C74.83 -1.7 76.49 -0.88 78.28 -0.28Z M114.98 -0.31C115.18 -0.1 115.44 0 115.74 0L119.84 0C120.14 0 120.4 -0.1 120.6 -0.31C120.81 -0.51 120.91 -0.77 120.91 -1.07L120.91 -30.59L129.5 -30.59C129.81 -30.59 130.06 -30.69 130.27 -30.89C130.47 -31.1 130.58 -31.35 130.58 -31.66L130.58 -35.5C130.58 -35.8 130.47 -36.06 130.27 -36.26C130.06 -36.47 129.81 -36.57 129.5 -36.57L106.08 -36.57C105.77 -36.57 105.51 -36.47 105.31 -36.26C105.11 -36.06 105 -35.8 105 -35.5L105 -31.66C105 -31.35 105.11 -31.1 105.31 -30.89C105.51 -30.69 105.77 -30.59 106.08 -30.59L114.67 -30.59L114.67 -1.07C114.67 -0.77 114.77 -0.51 114.98 -0.31Z M146.43 -1.15C148.51 0.06 150.78 0.66 153.23 0.66C155.69 0.66 157.96 0.06 160.04 -1.15C162.12 -2.36 163.76 -4 164.97 -6.06C166.18 -8.12 166.79 -10.38 166.79 -12.84L166.79 -23.73C166.79 -26.19 166.18 -28.45 164.97 -30.51C163.76 -32.57 162.12 -34.21 160.04 -35.42C157.96 -36.63 155.69 -37.23 153.23 -37.23C150.78 -37.23 148.51 -36.63 146.43 -35.42C144.35 -34.21 142.71 -32.57 141.5 -30.51C140.29 -28.45 139.68 -26.19 139.68 -23.73L139.68 -12.84C139.68 -10.38 140.29 -8.12 141.5 -6.06C142.71 -4 144.35 -2.36 146.43 -1.15ZM156.86 -6.34C155.74 -5.66 154.53 -5.32 153.23 -5.32C151.94 -5.32 150.73 -5.66 149.6 -6.34C148.48 -7.02 147.58 -7.94 146.92 -9.1C146.25 -10.26 145.92 -11.51 145.92 -12.84L145.92 -23.73C145.92 -25.06 146.25 -26.31 146.92 -27.47C147.58 -28.62 148.48 -29.55 149.6 -30.23C150.73 -30.91 151.94 -31.25 153.23 -31.25C154.53 -31.25 155.74 -30.91 156.86 -30.23C157.99 -29.55 158.89 -28.62 159.55 -27.47C160.21 -26.31 160.55 -25.06 160.55 -23.73L160.55 -12.84C160.55 -11.51 160.21 -10.26 159.55 -9.1C158.89 -7.94 157.99 -7.02 156.86 -6.34Z M179.42 -0.31C179.62 -0.1 179.88 0 180.19 0L184.28 0C184.59 0 184.84 -0.1 185.05 -0.31C185.25 -0.51 185.35 -0.77 185.35 -1.07L185.35 -14.37L187.86 -14.37L196.35 -0.72C196.66 -0.24 197.1 0 197.68 0L201.87 0C202.21 0 202.5 -0.1 202.72 -0.31C202.94 -0.51 203.05 -0.77 203.05 -1.07C203.05 -1.31 202.98 -1.55 202.85 -1.79L194.35 -14.93C196.71 -15.65 198.62 -16.97 200.08 -18.9C201.55 -20.82 202.28 -23.02 202.28 -25.47C202.28 -27.48 201.77 -29.34 200.75 -31.05C199.73 -32.75 198.34 -34.1 196.61 -35.09C194.87 -36.08 192.96 -36.57 190.88 -36.57L181.31 -36.57C180.7 -36.57 180.18 -36.36 179.75 -35.93C179.33 -35.5 179.11 -34.98 179.11 -34.37L179.11 -1.07C179.11 -0.77 179.22 -0.51 179.42 -0.31ZM190.57 -20.25L185.35 -20.25L185.35 -30.69L190.57 -30.69C192.14 -30.69 193.43 -30.19 194.43 -29.2C195.44 -28.22 195.94 -26.95 195.94 -25.42C195.94 -23.92 195.44 -22.68 194.43 -21.71C193.43 -20.74 192.14 -20.25 190.57 -20.25Z M213.53 -0.31C213.74 -0.1 214 0 214.3 0L229.24 0C229.54 0 229.8 -0.1 230 -0.31C230.21 -0.51 230.31 -0.77 230.31 -1.07L230.31 -4.6C230.31 -4.91 230.21 -5.17 230 -5.37C229.8 -5.57 229.54 -5.68 229.24 -5.68L224.89 -5.68L224.89 -30.89L229.24 -30.89C229.54 -30.89 229.8 -30.99 230 -31.2C230.21 -31.4 230.31 -31.66 230.31 -31.97L230.31 -35.5C230.31 -35.8 230.21 -36.06 230 -36.26C229.8 -36.47 229.54 -36.57 229.24 -36.57L214.3 -36.57C214 -36.57 213.74 -36.47 213.53 -36.26C213.33 -36.06 213.23 -35.8 213.23 -35.5L213.23 -31.97C213.23 -31.66 213.33 -31.4 213.53 -31.2C213.74 -30.99 214 -30.89 214.3 -30.89L218.65 -30.89L218.65 -5.68L214.3 -5.68C214 -5.68 213.74 -5.57 213.53 -5.37C213.33 -5.17 213.23 -4.91 213.23 -4.6L213.23 -1.07C213.23 -0.77 213.33 -0.51 213.53 -0.31Z M247.29 -1.15C249.37 0.06 251.64 0.66 254.09 0.66C256.55 0.66 258.82 0.06 260.9 -1.15C262.98 -2.36 264.62 -4 265.83 -6.06C267.04 -8.12 267.65 -10.38 267.65 -12.84L267.65 -23.73C267.65 -26.19 267.04 -28.45 265.83 -30.51C264.62 -32.57 262.98 -34.21 260.9 -35.42C258.82 -36.63 256.55 -37.23 254.09 -37.23C251.64 -37.23 249.37 -36.63 247.29 -35.42C245.21 -34.21 243.57 -32.57 242.36 -30.51C241.15 -28.45 240.54 -26.19 240.54 -23.73L240.54 -12.84C240.54 -10.38 241.15 -8.12 242.36 -6.06C243.57 -4 245.21 -2.36 247.29 -1.15ZM257.72 -6.34C256.6 -5.66 255.39 -5.32 254.09 -5.32C252.8 -5.32 251.59 -5.66 250.46 -6.34C249.34 -7.02 248.44 -7.94 247.78 -9.1C247.11 -10.26 246.78 -11.51 246.78 -12.84L246.78 -23.73C246.78 -25.06 247.11 -26.31 247.78 -27.47C248.44 -28.62 249.34 -29.55 250.46 -30.23C251.59 -30.91 252.8 -31.25 254.09 -31.25C255.39 -31.25 256.6 -30.91 257.72 -30.23C258.85 -29.55 259.75 -28.62 260.41 -27.47C261.08 -26.31 261.41 -25.06 261.41 -23.73L261.41 -12.84C261.41 -11.51 261.08 -10.26 260.41 -9.1C259.75 -7.94 258.85 -7.02 257.72 -6.34Z M303.63 -1.15C305.66 0.06 307.87 0.66 310.25 0.66C312.33 0.66 314.28 0.27 316.08 -0.51C317.89 -1.3 319.44 -2.42 320.74 -3.89C320.94 -4.16 321.04 -4.43 321.04 -4.71C321.04 -5.08 320.89 -5.42 320.58 -5.73L318.33 -8.08C318.06 -8.35 317.77 -8.49 317.46 -8.49C317.16 -8.49 316.87 -8.34 316.59 -8.03C314.96 -6.22 312.86 -5.32 310.3 -5.32C309.04 -5.32 307.87 -5.66 306.8 -6.34C305.73 -7.02 304.86 -7.94 304.22 -9.1C303.57 -10.26 303.24 -11.51 303.24 -12.84L303.24 -23.73C303.24 -25.06 303.57 -26.31 304.22 -27.47C304.86 -28.62 305.73 -29.55 306.8 -30.23C307.87 -30.91 309.04 -31.25 310.3 -31.25C312.86 -31.25 314.96 -30.35 316.59 -28.54C316.87 -28.23 317.17 -28.08 317.51 -28.08C317.79 -28.08 318.06 -28.22 318.33 -28.49L320.58 -30.84C320.86 -31.18 320.99 -31.52 320.99 -31.86C320.99 -32.2 320.89 -32.49 320.69 -32.73C319.42 -34.2 317.89 -35.32 316.08 -36.08C314.28 -36.85 312.33 -37.23 310.25 -37.23C307.87 -37.23 305.66 -36.63 303.63 -35.42C301.6 -34.21 299.99 -32.57 298.8 -30.51C297.6 -28.45 297.01 -26.19 297.01 -23.73L297.01 -12.84C297.01 -10.38 297.6 -8.12 298.8 -6.06C299.99 -4 301.6 -2.36 303.63 -1.15Z M333.34 -0.64C333.77 -0.21 334.29 0 334.9 0L350.81 0C351.12 0 351.37 -0.1 351.58 -0.31C351.78 -0.51 351.88 -0.77 351.88 -1.07L351.88 -4.91C351.88 -5.22 351.78 -5.47 351.58 -5.68C351.37 -5.88 351.12 -5.98 350.81 -5.98L338.94 -5.98L338.94 -35.5C338.94 -35.8 338.84 -36.06 338.64 -36.26C338.43 -36.47 338.18 -36.57 337.87 -36.57L333.78 -36.57C333.47 -36.57 333.22 -36.47 333.01 -36.26C332.81 -36.06 332.71 -35.8 332.71 -35.5L332.71 -2.2C332.71 -1.59 332.92 -1.07 333.34 -0.64Z"></path></g></svg>