<svg id="visual" viewBox="0 0 450 900" width="450" height="900" xmlns="http://www.w3.org/2000/svg" xmlns:xlink="http://www.w3.org/1999/xlink" version="1.1"><path d="M0 651L10.7 660.2C21.3 669.3 42.7 687.7 64.2 690.7C85.7 693.7 107.3 681.3 128.8 667.3C150.3 653.3 171.7 637.7 193 628.5C214.3 619.3 235.7 616.7 257 623.5C278.3 630.3 299.7 646.7 321.2 660.3C342.7 674 364.3 685 385.8 691.5C407.3 698 428.7 700 439.3 701L450 702L450 901L439.3 901C428.7 901 407.3 901 385.8 901C364.3 901 342.7 901 321.2 901C299.7 901 278.3 901 257 901C235.7 901 214.3 901 193 901C171.7 901 150.3 901 128.8 901C107.3 901 85.7 901 64.2 901C42.7 901 21.3 901 10.7 901L0 901Z" fill="#3794ff"></path><path d="M0 713L10.7 713.8C21.3 714.7 42.7 716.3 64.2 719.5C85.7 722.7 107.3 727.3 128.8 731.5C150.3 735.7 171.7 739.3 193 733C214.3 726.7 235.7 710.3 257 709.5C278.3 708.7 299.7 723.3 321.2 723.3C342.7 723.3 364.3 708.7 385.8 706.3C407.3 704 428.7 714 439.3 719L450 724L450 901L439.3 901C428.7 901 407.3 901 385.8 901C364.3 901 342.7 901 321.2 901C299.7 901 278.3 901 257 901C235.7 901 214.3 901 193 901C171.7 901 150.3 901 128.8 901C107.3 901 85.7 901 64.2 901C42.7 901 21.3 901 10.7 901L0 901Z" fill="#2c7ee5"></path><path d="M0 783L10.7 780.7C21.3 778.3 42.7 773.7 64.2 774C85.7 774.3 107.3 779.7 128.8 782.2C150.3 784.7 171.7 784.3 193 781.8C214.3 779.3 235.7 774.7 257 763.3C278.3 752 299.7 734 321.2 729.5C342.7 725 364.3 734 385.8 739.8C407.3 745.7 428.7 748.3 439.3 749.7L450 751L450 901L439.3 901C428.7 901 407.3 901 385.8 901C364.3 901 342.7 901 321.2 901C299.7 901 278.3 901 257 901C235.7 901 214.3 901 193 901C171.7 901 150.3 901 128.8 901C107.3 901 85.7 901 64.2 901C42.7 901 21.3 901 10.7 901L0 901Z" fill="#2068cb"></path><path d="M0 803L10.7 801.8C21.3 800.7 42.7 798.3 64.2 794.2C85.7 790 107.3 784 128.8 781.5C150.3 779 171.7 780 193 786.5C214.3 793 235.7 805 257 803.5C278.3 802 299.7 787 321.2 786.3C342.7 785.7 364.3 799.3 385.8 803.7C407.3 808 428.7 803 439.3 800.5L450 798L450 901L439.3 901C428.7 901 407.3 901 385.8 901C364.3 901 342.7 901 321.2 901C299.7 901 278.3 901 257 901C235.7 901 214.3 901 193 901C171.7 901 150.3 901 128.8 901C107.3 901 85.7 901 64.2 901C42.7 901 21.3 901 10.7 901L0 901Z" fill="#1253b2"></path><path d="M0 833L10.7 836.2C21.3 839.3 42.7 845.7 64.2 847.3C85.7 849 107.3 846 128.8 840.5C150.3 835 171.7 827 193 828C214.3 829 235.7 839 257 839.8C278.3 840.7 299.7 832.3 321.2 827.5C342.7 822.7 364.3 821.3 385.8 823.8C407.3 826.3 428.7 832.7 439.3 835.8L450 839L450 901L439.3 901C428.7 901 407.3 901 385.8 901C364.3 901 342.7 901 321.2 901C299.7 901 278.3 901 257 901C235.7 901 214.3 901 193 901C171.7 901 150.3 901 128.8 901C107.3 901 85.7 901 64.2 901C42.7 901 21.3 901 10.7 901L0 901Z" fill="#003e99"></path></svg>