<svg id="visual" viewBox="0 0 1920 1080" width="1920" height="1080" xmlns="http://www.w3.org/2000/svg" xmlns:xlink="http://www.w3.org/1999/xlink" version="1.1"><path d="M0 686L45.7 682.8C91.3 679.7 182.7 673.3 274.2 680.7C365.7 688 457.3 709 548.8 719.2C640.3 729.3 731.7 728.7 823 717C914.3 705.3 1005.7 682.7 1097 675.7C1188.3 668.7 1279.7 677.3 1371.2 689.2C1462.7 701 1554.3 716 1645.8 702.2C1737.3 688.3 1828.7 645.7 1874.3 624.3L1920 603L1920 1081L1874.3 1081C1828.7 1081 1737.3 1081 1645.8 1081C1554.3 1081 1462.7 1081 1371.2 1081C1279.7 1081 1188.3 1081 1097 1081C1005.7 1081 914.3 1081 823 1081C731.7 1081 640.3 1081 548.8 1081C457.3 1081 365.7 1081 274.2 1081C182.7 1081 91.3 1081 45.7 1081L0 1081Z" fill="#3794ff"></path><path d="M0 708L45.7 722.3C91.3 736.7 182.7 765.3 274.2 759.2C365.7 753 457.3 712 548.8 694.5C640.3 677 731.7 683 823 700.8C914.3 718.7 1005.7 748.3 1097 763.7C1188.3 779 1279.7 780 1371.2 782.2C1462.7 784.3 1554.3 787.7 1645.8 771C1737.3 754.3 1828.7 717.7 1874.3 699.3L1920 681L1920 1081L1874.3 1081C1828.7 1081 1737.3 1081 1645.8 1081C1554.3 1081 1462.7 1081 1371.2 1081C1279.7 1081 1188.3 1081 1097 1081C1005.7 1081 914.3 1081 823 1081C731.7 1081 640.3 1081 548.8 1081C457.3 1081 365.7 1081 274.2 1081C182.7 1081 91.3 1081 45.7 1081L0 1081Z" fill="#2c7ee5"></path><path d="M0 762L45.7 779.8C91.3 797.7 182.7 833.3 274.2 840.7C365.7 848 457.3 827 548.8 808.3C640.3 789.7 731.7 773.3 823 776.3C914.3 779.3 1005.7 801.7 1097 811.8C1188.3 822 1279.7 820 1371.2 816.8C1462.7 813.7 1554.3 809.3 1645.8 801.2C1737.3 793 1828.7 781 1874.3 775L1920 769L1920 1081L1874.3 1081C1828.7 1081 1737.3 1081 1645.8 1081C1554.3 1081 1462.7 1081 1371.2 1081C1279.7 1081 1188.3 1081 1097 1081C1005.7 1081 914.3 1081 823 1081C731.7 1081 640.3 1081 548.8 1081C457.3 1081 365.7 1081 274.2 1081C182.7 1081 91.3 1081 45.7 1081L0 1081Z" fill="#2068cb"></path><path d="M0 900L45.7 902.8C91.3 905.7 182.7 911.3 274.2 904.7C365.7 898 457.3 879 548.8 867C640.3 855 731.7 850 823 848.5C914.3 847 1005.7 849 1097 857.2C1188.3 865.3 1279.7 879.7 1371.2 892.7C1462.7 905.7 1554.3 917.3 1645.8 912.5C1737.3 907.7 1828.7 886.3 1874.3 875.7L1920 865L1920 1081L1874.3 1081C1828.7 1081 1737.3 1081 1645.8 1081C1554.3 1081 1462.7 1081 1371.2 1081C1279.7 1081 1188.3 1081 1097 1081C1005.7 1081 914.3 1081 823 1081C731.7 1081 640.3 1081 548.8 1081C457.3 1081 365.7 1081 274.2 1081C182.7 1081 91.3 1081 45.7 1081L0 1081Z" fill="#1253b2"></path><path d="M0 935L45.7 934C91.3 933 182.7 931 274.2 938C365.7 945 457.3 961 548.8 973.8C640.3 986.7 731.7 996.3 823 1001.3C914.3 1006.3 1005.7 1006.7 1097 999.5C1188.3 992.3 1279.7 977.7 1371.2 971.5C1462.7 965.3 1554.3 967.7 1645.8 973C1737.3 978.3 1828.7 986.7 1874.3 990.8L1920 995L1920 1081L1874.3 1081C1828.7 1081 1737.3 1081 1645.8 1081C1554.3 1081 1462.7 1081 1371.2 1081C1279.7 1081 1188.3 1081 1097 1081C1005.7 1081 914.3 1081 823 1081C731.7 1081 640.3 1081 548.8 1081C457.3 1081 365.7 1081 274.2 1081C182.7 1081 91.3 1081 45.7 1081L0 1081Z" fill="#003e99"></path></svg>