<svg id="visual" viewBox="0 0 240 801" width="240" height="801" xmlns="http://www.w3.org/2000/svg" xmlns:xlink="http://www.w3.org/1999/xlink" version="1.1"><path d="M0 603L5.7 608.8C11.3 614.7 22.7 626.3 34.2 624.5C45.7 622.7 57.3 607.3 68.8 598.3C80.3 589.3 91.7 586.7 103 584C114.3 581.3 125.7 578.7 137 580.8C148.3 583 159.7 590 171.2 589.7C182.7 589.3 194.3 581.7 205.8 572.8C217.3 564 228.7 554 234.3 549L240 544L240 802L234.3 802C228.7 802 217.3 802 205.8 802C194.3 802 182.7 802 171.2 802C159.7 802 148.3 802 137 802C125.7 802 114.3 802 103 802C91.7 802 80.3 802 68.8 802C57.3 802 45.7 802 34.2 802C22.7 802 11.3 802 5.7 802L0 802Z" fill="#fe9069"></path><path d="M0 590L5.7 599.2C11.3 608.3 22.7 626.7 34.2 628.3C45.7 630 57.3 615 68.8 605.3C80.3 595.7 91.7 591.3 103 590.5C114.3 589.7 125.7 592.3 137 597.8C148.3 603.3 159.7 611.7 171.2 620.8C182.7 630 194.3 640 205.8 636.8C217.3 633.7 228.7 617.3 234.3 609.2L240 601L240 802L234.3 802C228.7 802 217.3 802 205.8 802C194.3 802 182.7 802 171.2 802C159.7 802 148.3 802 137 802C125.7 802 114.3 802 103 802C91.7 802 80.3 802 68.8 802C57.3 802 45.7 802 34.2 802C22.7 802 11.3 802 5.7 802L0 802Z" fill="#f8764a"></path><path d="M0 647L5.7 653C11.3 659 22.7 671 34.2 679.3C45.7 687.7 57.3 692.3 68.8 687C80.3 681.7 91.7 666.3 103 657.2C114.3 648 125.7 645 137 651.8C148.3 658.7 159.7 675.3 171.2 676C182.7 676.7 194.3 661.3 205.8 662.2C217.3 663 228.7 680 234.3 688.5L240 697L240 802L234.3 802C228.7 802 217.3 802 205.8 802C194.3 802 182.7 802 171.2 802C159.7 802 148.3 802 137 802C125.7 802 114.3 802 103 802C91.7 802 80.3 802 68.8 802C57.3 802 45.7 802 34.2 802C22.7 802 11.3 802 5.7 802L0 802Z" fill="#f05b29"></path><path d="M0 713L5.7 714.8C11.3 716.7 22.7 720.3 34.2 723.5C45.7 726.7 57.3 729.3 68.8 721.2C80.3 713 91.7 694 103 686.5C114.3 679 125.7 683 137 688.5C148.3 694 159.7 701 171.2 701.7C182.7 702.3 194.3 696.7 205.8 694.3C217.3 692 228.7 693 234.3 693.5L240 694L240 802L234.3 802C228.7 802 217.3 802 205.8 802C194.3 802 182.7 802 171.2 802C159.7 802 148.3 802 137 802C125.7 802 114.3 802 103 802C91.7 802 80.3 802 68.8 802C57.3 802 45.7 802 34.2 802C22.7 802 11.3 802 5.7 802L0 802Z" fill="#d14e24"></path><path d="M0 768L5.7 764.5C11.3 761 22.7 754 34.2 751.5C45.7 749 57.3 751 68.8 752.5C80.3 754 91.7 755 103 752.8C114.3 750.7 125.7 745.3 137 745.5C148.3 745.7 159.7 751.3 171.2 756.8C182.7 762.3 194.3 767.7 205.8 767.8C217.3 768 228.7 763 234.3 760.5L240 758L240 802L234.3 802C228.7 802 217.3 802 205.8 802C194.3 802 182.7 802 171.2 802C159.7 802 148.3 802 137 802C125.7 802 114.3 802 103 802C91.7 802 80.3 802 68.8 802C57.3 802 45.7 802 34.2 802C22.7 802 11.3 802 5.7 802L0 802Z" fill="#b2411f"></path></svg>