<svg viewBox="0 0 24 24" fill="none" xmlns="http://www.w3.org/2000/svg"><g id="SVGRepo_bgCarrier" stroke-width="0"></g><g id="SVGRepo_tracerCarrier" stroke-linecap="round" stroke-linejoin="round"></g><g id="SVGRepo_iconCarrier"> <path fill-rule="evenodd" clip-rule="evenodd" d="M3 4C1.34315 4 0 5.34315 0 7V14C0 15.3121 0.842366 16.4275 2.01581 16.8348C2.18436 18.6108 3.67994 20 5.5 20C7.26324 20 8.72194 18.6961 8.96456 17H15.0354C15.2781 18.6961 16.7368 20 18.5 20C20.3201 20 21.8156 18.6108 21.9842 16.8348C23.1576 16.4275 24 15.3121 24 14V10.2935C24 10.0016 23.9574 9.71115 23.8735 9.43149L22.8854 6.13796C22.5047 4.869 21.3368 4 20.0119 4H3ZM4 16.4361V16.5639C4.03348 17.3634 4.69224 18.0013 5.5 18.0013C6.30776 18.0013 6.96652 17.3634 7 16.5639V16.4361C6.96652 15.6366 6.30776 14.9987 5.5 14.9987C4.69224 14.9987 4.03348 15.6366 4 16.4361ZM5.5 13C6.8962 13 8.10145 13.8175 8.66318 15H15.3368C15.8985 13.8175 17.1038 13 18.5 13C19.8245 13 20.9771 13.7357 21.5716 14.8207C21.8306 14.64 22 14.3398 22 14V10.2935C22 10.1962 21.9858 10.0994 21.9578 10.0062L21.956 10H18C16.8954 10 16 9.10457 16 8V6H3C2.44772 6 2 6.44772 2 7V14C2 14.3398 2.16945 14.64 2.42845 14.8207C3.02292 13.7357 4.17555 13 5.5 13ZM18 6V7C18 7.55228 18.4477 8 19 8H21.356L20.9698 6.71265C20.8429 6.28967 20.4535 6 20.0119 6H18ZM17 16.4361V16.5639C17.0335 17.3634 17.6922 18.0013 18.5 18.0013C19.3078 18.0013 19.9665 17.3634 20 16.5639V16.4361C19.9665 15.6366 19.3078 14.9987 18.5 14.9987C17.6922 14.9987 17.0335 15.6366 17 16.4361Z" fill="#f4f4f4"></path> </g></svg>